<?xml version="1.0" standalone="no"?><!DOCTYPE svg PUBLIC "-//W3C//DTD SVG 1.1//EN" "http://www.w3.org/Graphics/SVG/1.1/DTD/svg11.dtd"><svg t="1617512644042" class="icon" viewBox="0 0 1024 1024" version="1.1" xmlns="http://www.w3.org/2000/svg" p-id="7919" xmlns:xlink="http://www.w3.org/1999/xlink" width="200" height="200"><defs><style type="text/css"></style></defs><path d="M798.814 959.589h-571.71c-45.108 0-81.673-36.565-81.673-81.673V142.86c0-45.108 36.565-81.673 81.673-81.673h571.71c45.108 0 81.673 36.565 81.673 81.673v735.056c0 45.108-36.565 81.673-81.673 81.673z m0-816.729h-571.71v735.056h571.71V142.86zM431.286 306.206H308.777v-81.673h122.509v81.673z m0 163.345H308.777v-81.673h122.509v81.673z m285.855 163.346H308.777v-81.673h408.364v81.673z m0 163.346H308.777V714.57h408.364v81.673z m-204.182-571.71h204.182v245.019H512.959V224.533z" p-id="7920"></path></svg>