<?xml version="1.0" standalone="no"?><!DOCTYPE svg PUBLIC "-//W3C//DTD SVG 1.1//EN" "http://www.w3.org/Graphics/SVG/1.1/DTD/svg11.dtd"><svg t="1617969342047" class="icon" viewBox="0 0 1024 1024" version="1.1" xmlns="http://www.w3.org/2000/svg" p-id="1922" xmlns:xlink="http://www.w3.org/1999/xlink" width="200" height="200"><defs><style type="text/css"></style></defs><path d="M672 880H224a80 80 0 0 0-80-80V640a80 80 0 0 0 80-80h448a80 80 0 0 0 80 80v160a80 80 0 0 0-80 80z" fill="#458C28" p-id="1923"></path><path d="M368 720a112 80 90 1 0 160 0 112 80 90 1 0-160 0Z" fill="#458C28" p-id="1924"></path><path d="M80 496m32 0l672 0q32 0 32 32l0 384q0 32-32 32l-672 0q-32 0-32-32l0-384q0-32 32-32Z" fill="#5EA2CC" p-id="1925"></path><path d="M672 880H224a80 80 0 0 0-80-80V640a80 80 0 0 0 80-80h448a80 80 0 0 0 80 80v160a80 80 0 0 0-80 80z" fill="#76B4E2" p-id="1926"></path><path d="M368 720a112 80 90 1 0 160 0 112 80 90 1 0-160 0Z" fill="#D1B339" p-id="1927"></path><path d="M910.72 593.76l-9.92 17.12-84.8 146.88V528a32 32 0 0 0-32-32h-106.56L382.08 325.44a81.12 81.12 0 0 1-5.76 8.64 72 72 0 0 1-14.08 14.08l-1.44 1.12c-2.24 1.6-4.48 3.2-6.88 4.64a80 80 0 0 1-81.12 0.8l-80 138.56 4.32 2.72h-80l100-173.44L256 256l17.44-30.08a32 32 0 0 1 43.68-11.68l5.6 3.2 64 37.12 352 203.04 110.56 64 49.92 28.8a32 32 0 0 1 11.52 43.36z" fill="#5EA2CC" p-id="1928"></path><path d="M677.44 496h-480l-4.32-2.72 80-138.56a80 80 0 0 0 81.12-0.8 78.88 78.88 0 0 0 28.16-28.48z" fill="#76B4E2" p-id="1929"></path><path d="M849.12 521.28l-110.56-64-136-235.36a80 80 0 0 1-109.28-29.28l-106.56 61.76-64-37.12 235.68-136a32 32 0 0 1 43.68 11.68zM926.24 718.72L816 782.4v-24.64l84.8-146.88 37.12 64a32 32 0 0 1-11.68 43.84z" fill="#5EA2CC" p-id="1930"></path><path d="M738.56 457.44l-352-203.04 106.56-61.6a80 80 0 0 0 109.28 29.28z" fill="#76B4E2" p-id="1931"></path><path d="M672 896H224a16 16 0 0 1-16-16 64 64 0 0 0-64-64 16 16 0 0 1-16-16V640a16 16 0 0 1 16-16 64 64 0 0 0 64-64 16 16 0 0 1 16-16h80a16 16 0 0 1 0 32h-65.28A96 96 0 0 1 160 654.72v130.56A96 96 0 0 1 238.72 864h418.56A96 96 0 0 1 736 785.28v-130.56A96 96 0 0 1 657.28 576H368a16 16 0 0 1 0-32h304a16 16 0 0 1 16 16 64 64 0 0 0 64 64 16 16 0 0 1 16 16v160a16 16 0 0 1-16 16 64 64 0 0 0-64 64 16 16 0 0 1-16 16z" fill="#0D182D" p-id="1932"></path><path d="M448 848c-52.96 0-96-57.44-96-128s43.04-128 96-128 96 57.44 96 128a128 128 0 0 1-1.12 17.92 16 16 0 0 1-32-3.84A133.28 133.28 0 0 0 512 720c0-52-29.28-96-64-96s-64 44-64 96 29.28 96 64 96a60.96 60.96 0 0 0 51.2-39.04 16 16 0 1 1 28.8 14.08A92 92 0 0 1 448 848z" fill="#0D182D" p-id="1933"></path><path d="M784 960H112a48 48 0 0 1-48-48V688a16 16 0 0 1 32 0v224a16 16 0 0 0 16 16h672a16 16 0 0 0 16-16V528a16 16 0 0 0-16-16H112a16 16 0 0 0-16 16v96a16 16 0 0 1-32 0v-96a48 48 0 0 1 48-48h672a48 48 0 0 1 48 48v384a48 48 0 0 1-48 48z" fill="#0D182D" p-id="1934"></path><path d="M672 896H224a16 16 0 0 1-16-16 64 64 0 0 0-64-64 16 16 0 0 1-16-16V640a16 16 0 0 1 16-16 64 64 0 0 0 64-64 16 16 0 0 1 16-16h80a16 16 0 0 1 0 32h-65.28A96 96 0 0 1 160 654.72v130.56A96 96 0 0 1 238.72 864h418.56A96 96 0 0 1 736 785.28v-130.56A96 96 0 0 1 657.28 576H368a16 16 0 0 1 0-32h304a16 16 0 0 1 16 16 64 64 0 0 0 64 64 16 16 0 0 1 16 16v160a16 16 0 0 1-16 16 64 64 0 0 0-64 64 16 16 0 0 1-16 16z" fill="#0D182D" p-id="1935"></path><path d="M448 848c-52.96 0-96-57.44-96-128s43.04-128 96-128 96 57.44 96 128a128 128 0 0 1-1.12 17.92 16 16 0 0 1-32-3.84A133.28 133.28 0 0 0 512 720c0-52-29.28-96-64-96s-64 44-64 96 29.28 96 64 96a60.96 60.96 0 0 0 51.2-39.04 16 16 0 1 1 28.8 14.08A92 92 0 0 1 448 848zM816 773.76a18.4 18.4 0 0 1-4.16 0 16 16 0 0 1-11.84-16V528a16 16 0 0 0-16-16h-106.56a16.96 16.96 0 0 1-8-2.08L386.72 346.56c-1.44 1.92-3.2 3.68-4.96 5.6l-1.12 1.28-1.28 1.12a74.08 74.08 0 0 1-7.52 6.24 56.32 56.32 0 0 1-9.92 6.88 95.04 95.04 0 0 1-82.56 7.68l-18.72 32a16 16 0 0 1-27.84-16l26.08-45.28a16 16 0 0 1 9.76-7.52 16.8 16.8 0 0 1 12.16 1.6 64 64 0 0 0 64.8 0A57.28 57.28 0 0 0 352 336l5.28-4.48c2.4-2.56 4.16-4.48 5.76-6.56s3.36-4.64 4.8-7.04a16 16 0 0 1 21.76-5.92L681.76 480h64l-197.92-114.08a16 16 0 1 1 16-27.84l343.2 198.08a48 48 0 0 1 17.6 65.6l-94.72 164a16 16 0 0 1-13.92 8z m16-243.84v168.16l64-112a16 16 0 0 0-5.76-21.76z" fill="#0D182D" p-id="1936"></path><path d="M197.12 512h-80a16 16 0 0 1-13.92-8 16 16 0 0 1 0-16l156-270.24a48 48 0 0 1 65.76-17.44l194.88 112a16 16 0 0 1-16 27.84l-195.04-112a16 16 0 0 0-12-1.76 16 16 0 0 0-9.76 7.52L144.96 480h36.96l23.04-40a16 16 0 0 1 27.84 16l-20.32 35.36a16 16 0 0 1 0 9.28 16 16 0 0 1-15.36 11.36z" fill="#0D182D" p-id="1937"></path><path d="M677.44 512h-480a16 16 0 0 1-8.96-2.72l-3.04-2.08a16 16 0 0 1-7.68-9.6 16 16 0 0 1 1.44-12.32l26.08-45.28a16 16 0 0 1 27.84 16l-14.24 24h398.88l-231.04-133.44c-1.76 2.24-3.68 4.32-5.44 6.24l-1.12 1.12a57.6 57.6 0 0 1-8.32 6.88 56.32 56.32 0 0 1-9.92 6.88 95.04 95.04 0 0 1-82.56 7.68l-18.72 32a16 16 0 0 1-27.84-16l26.08-45.28a16 16 0 0 1 9.76-7.52 16.8 16.8 0 0 1 12.16 1.6 64 64 0 0 0 64.8 0A57.28 57.28 0 0 0 352 336a52.96 52.96 0 0 0 4.96-4.32l1.28-1.28a64.96 64.96 0 0 0 5.12-5.92 77.6 77.6 0 0 0 4.48-6.56 16 16 0 0 1 21.76-5.92l295.84 170.08a16 16 0 0 1 7.52 18.08 16 16 0 0 1-15.52 11.84zM849.12 537.28a16 16 0 0 1-8-2.08l-110.56-64a17.44 17.44 0 0 1-5.92-5.92l-128-222.72a96 96 0 0 1-107.36-28.8l-93.92 54.4a16 16 0 0 1-16 0l-64-37.12a16 16 0 0 1 0-27.84l235.68-136a48 48 0 0 1 65.6 17.6l84.8 147.04a16 16 0 1 1-27.84 16L588.8 100.8a16 16 0 0 0-22.56-4.8l-211.68 121.28 32 18.56 98.56-56.96a16 16 0 0 1 12.16-1.6 16.96 16.96 0 0 1 9.76 7.52A64 64 0 0 0 594.56 208a16 16 0 0 1 21.92 5.92l133.76 231.68 55.2 32-104.8-181.6a16 16 0 1 1 27.84-16l134.56 233.28a16 16 0 0 1-2.56 19.36 16 16 0 0 1-11.36 4.64zM816 798.4a16 16 0 0 1-16-16v-24.64a16.96 16.96 0 0 1 2.08-8l84.8-146.88a16 16 0 0 1 13.92-8 16 16 0 0 1 13.92 8l37.12 64a48 48 0 0 1-17.6 65.6l-110.24 64a17.44 17.44 0 0 1-8 1.92z m84.8-155.52l-62.4 108.16 80-46.24a16 16 0 0 0 5.92-21.6z" fill="#0D182D" p-id="1938"></path><path d="M738.56 473.44a16 16 0 0 1-8-2.08l-182.72-105.44a16 16 0 1 1 16-27.84l131.04 75.68-98.88-171.04a96 96 0 0 1-107.36-28.8l-69.92 40.48 101.28 58.4a16 16 0 0 1-16 27.84l-125.28-72.32a16 16 0 0 1 0-27.84l106.56-61.6a16 16 0 0 1 12.16-1.6 16.96 16.96 0 0 1 9.76 7.52A64 64 0 0 0 594.56 208a16 16 0 0 1 21.92 5.92L752 449.44a16 16 0 0 1-2.56 19.36 16 16 0 0 1-10.88 4.64z" fill="#0D182D" p-id="1939"></path></svg>