<?xml version="1.0" standalone="no"?><!DOCTYPE svg PUBLIC "-//W3C//DTD SVG 1.1//EN" "http://www.w3.org/Graphics/SVG/1.1/DTD/svg11.dtd"><svg t="1617512435221" class="icon" viewBox="0 0 1024 1024" version="1.1" xmlns="http://www.w3.org/2000/svg" p-id="2749" xmlns:xlink="http://www.w3.org/1999/xlink" width="200" height="200"><defs><style type="text/css"></style></defs><path d="M469.333333 256l-42.666667 0 0 213.333333 42.666667 0L469.333333 256zM256 256l-42.666667 0 0 213.333333 42.666667 0L256 256zM384 256l-85.333333 0 0 213.333333 85.333333 0L384 256zM640 256l-42.666667 0 0 213.333333 42.666667 0L640 256zM554.666667 256l-42.666667 0 0 213.333333 42.666667 0L554.666667 256zM704 170.666667 149.333333 170.666667C136.533333 170.666667 128 179.2 128 192l0 768c0 12.8 8.533333 21.333333 21.333333 21.333333 6.4 0 10.666667-2.133333 14.933333-6.4l89.6-72.533333 72.533333 72.533333c4.266667 4.266667 8.533333 6.4 14.933333 6.4s10.666667-2.133333 14.933333-6.4l70.4-70.4 70.4 70.4c4.266667 4.266667 8.533333 6.4 14.933333 6.4s10.666667-2.133333 14.933333-6.4l72.533333-72.533333 89.6 72.533333c4.266667 4.266667 8.533333 6.4 14.933333 6.4 12.8 0 21.333333-8.533333 21.333333-21.333333L725.333333 192C725.333333 179.2 716.8 170.666667 704 170.666667zM682.666667 915.2l-70.4-55.466667C608 855.466667 603.733333 853.333333 597.333333 853.333333c-6.4 0-10.666667 2.133333-14.933333 6.4L512 930.133333l-70.4-70.4C437.333333 855.466667 433.066667 853.333333 426.666667 853.333333c-6.4 0-10.666667 2.133333-14.933333 6.4L341.333333 930.133333l-70.4-70.4C266.666667 855.466667 262.4 853.333333 256 853.333333c-6.4 0-10.666667 2.133333-14.933333 6.4L170.666667 915.2 170.666667 213.333333l512 0L682.666667 915.2zM426.666667 554.666667 213.333333 554.666667l0 42.666667 213.333333 0L426.666667 554.666667zM874.666667 42.666667 320 42.666667c-12.8 0-21.333333 8.533333-21.333333 21.333333l0 64 42.666667 0L341.333333 85.333333l512 0 0 701.866667-70.4-55.466667C778.666667 727.466667 774.4 725.333333 768 725.333333l0 51.2 2.133333-2.133333 89.6 72.533333c4.266667 4.266667 8.533333 6.4 14.933333 6.4 12.8 0 21.333333-8.533333 21.333333-21.333333L896 64C896 51.2 887.466667 42.666667 874.666667 42.666667zM640 640 213.333333 640l0 42.666667 426.666667 0L640 640zM512 725.333333 213.333333 725.333333l0 42.666667 298.666667 0L512 725.333333z" p-id="2750"></path></svg>